<mxfile host="app.diagrams.net" modified="2023-07-14T08:12:41.682Z" agent="Mozilla/5.0 (Windows NT 10.0; Win64; x64) AppleWebKit/537.36 (KHTML, like Gecko) Chrome/114.0.0.0 Safari/537.36" version="21.2.9" etag="RUVIzNrmFFdT1qfeVKG2" type="github">
  <diagram name="Trang-1" id="K9KskJ2_5i8z0TTTMPtk">
    <mxGraphModel>
      <root>
        <mxCell id="0" />
        <mxCell id="1" parent="0" />
      </root>
    </mxGraphModel>
  </diagram>
</mxfile>
